<svg width="2400" height="2304" xmlns="http://www.w3.org/2000/svg">

 <g id="imagebot_2">
  <path fill="#e5e5e5" d="M 335.75107328162994 1345.9014200001025 C 151.32107328162994 818.9614200001024 0.23107328162994237 386.83142000010236 0.0010732816299423575 385.6114200001024 C -0.38326671837005766 383.6014200001024 102.58107328162994 335.9914200001024 107.32107328162994 336.00142000010237 C 108.28275328162994 336.00242000010235 850.47107328163 2225.5014200001024 851.48107328163 2230.5014200001024 C 851.84657328163 2232.3216200001025 676.97107328163 2303.9774200001025 672.1610732816299 2303.9774200001025 C 671.5707432816299 2303.9774200001025 520.19107328163 1872.8374200001024 335.76107328162993 1345.8874200001023 L 335.75107328162994 1345.9014200001025 z" id="imagebot_5"/>
  <path d="M 479.24107328162995 1092.4014200001025 C 257.70107328162993 529.2914200001023 191.63107328162994 360.39142000010236 192.40107328162995 359.13142000010237 C 200.32107328162994 346.32142000010236 295.7710732816299 273.9214200001024 348.69107328162994 240.58142000010238 C 574.8810732816299 98.11142000010237 871.1610732816299 27.84142000010237 1165.70107328163 46.82142000010237 L 1176.1770732816299 47.49660000010237 L 1413.61707328163 581.7466000001024 C 1544.2070732816298 875.5866000001024 1651.2070732816298 1115.8466000001024 1651.38707328163 1115.6666000001023 C 1651.5665732816299 1115.4871000001024 1598.80607328163 919.6266000001024 1534.13707328163 680.4166000001023 C 1469.47207328163 441.20660000010236 1416.33707328163 244.12660000010237 1416.04707328163 242.45660000010238 L 1415.53107328163 239.42490000010238 L 1432.87607328163 235.63800000010238 C 1655.59607328163 187.01400000010239 1802.66607328163 121.65800000010238 1922.50607328163 18.06800000010237 C 1930.04987328163 11.54680000010237 1937.5440732816298 4.811000000102371 1939.1590732816298 3.100000000102371 C 1940.85907328163 1.399800000102371 1942.6590732816298 1.0237097736350009e-10 1943.35907328163 1.0237097736350009e-10 C 1944.3891732816298 1.0237097736350009e-10 2398.5490732816297 1145.4000000001024 2399.60907328163 1150.7000000001024 C 2400.35097328163 1154.3924000001023 2385.80607328163 1177.6550000001023 2370.34207328163 1197.5070000001024 C 2232.86207328163 1373.9970000001024 1888.3120732816299 1560.3370000001023 1636.24207328163 1594.5070000001024 C 1479.88207328163 1615.7050000001025 1373.78207328163 1579.3770000001023 1324.95207328163 1487.9270000001025 C 1318.06017328163 1475.0200000001023 1317.59497328163 1476.4130000001023 1334.1572732816298 1460.3530000001024 C 1417.74127328163 1379.2990000001023 1546.54727328163 1311.8330000001024 1600.3972732816299 1320.9130000001023 C 1649.48627328163 1329.1822000001023 1640.02427328163 1387.4250000001023 1571.7332732816299 1497.3530000001024 L 1564.79787328163 1508.5170000001024 L 1570.56437328163 1502.3957000001024 C 1782.98437328163 1276.9057000001023 1759.32437328163 1163.0857000001024 1520.04337328163 1259.4057000001023 C 1271.06337328163 1359.6257000001024 935.3833732816299 1609.3557000001024 778.9133732816299 1810.7657000001025 C 773.2520732816299 1818.0532000001024 768.2973732816299 1824.0157000001025 767.9033732816299 1824.0157000001025 C 767.5091332816299 1824.0157000001025 637.6533732816299 1494.7857000001025 479.3333732816299 1092.3957000001024 L 479.24107328162995 1092.4014200001025 z" fill="#f2f2f2" id="imagebot_4"/>
  <path fill="#343434" d="M 668.98107328163 99.71242000010237 C 483.7810732816299 152.51142000010236 323.4610732816299 242.03242000010238 191.96107328162995 360.38242000010234 L 371.31107328162994 816.2224200001024 L 431.9200732816299 768.3124200001024 L 431.91607328162996 768.3007200001024 C 551.8860732816299 672.3207200001024 671.86607328163 600.3307200001024 839.83607328163 528.3507200001023 L 718.8760732816299 225.94072000010237 L 718.39951328163 225.91342000010238 L 696.7625132816299 170.65542000010237 L 695.86993328163 168.42492000010236 L 695.88753328163 168.41892000010236 L 668.98107328163 99.71242000010237 z M 839.84107328163 528.3524200001024 L 1031.80107328163 972.2624200001023 C 1144.53107328163 923.9484200001024 1303.5710732816299 869.0424200001024 1434.92107328163 849.7924200001024 L 1435.7179732816298 849.0131200001024 L 1527.1789732816299 839.1049200001024 L 1345.6789732816299 430.73492000010236 L 1271.7259732816299 432.30722000010235 L 1271.74997328163 432.35992000010236 C 1115.84997328163 444.36992000010235 959.8599732816299 480.36992000010235 839.88997328163 528.3599200001024 z M 1031.80107328163 972.2624200001023 C 891.33107328163 1042.4974200001025 750.87107328163 1121.8824200001025 621.5410732816299 1228.2224200001024 C 598.61607328163 1246.5094200001024 574.6320732816299 1264.7324200001024 554.0640732816299 1280.7164200001023 L 767.8540732816299 1824.0964200001024 C 873.9440732816299 1682.6364200001024 1049.5240732816299 1535.4064200001023 1220.63407328163 1422.1964200001023 L 1180.24707328163 1328.1594200001023 L 1180.70407328163 1327.8390200001024 z M 1565.18107328163 203.13242000010237 C 1516.7650732816298 217.26342000010237 1466.88407328163 229.31042000010237 1415.73107328163 240.40342000010236 L 1538.1110732816298 693.9134200001024 C 1600.49907328163 681.9154200001024 1650.89107328163 667.5184200001024 1725.27107328163 638.7244200001023 L 1649.1770732816299 430.82442000010235 L 1648.8645732816299 431.0568400001024 z M 1725.27107328163 638.7224200001024 L 1871.64107328163 1044.2424200001024 C 2013.80107328163 978.9914200001024 2101.63107328163 918.2624200001023 2187.91107328163 835.6824200001024 L 2187.88807328163 835.3152300001024 L 2249.44507328163 773.0182300001023 L 2108.21507328163 416.2182300001024 L 2036.48107328163 471.9272300001024 L 2035.68027328163 471.72801000010236 C 1926.62027328163 556.0830100001024 1835.91027328163 601.8380100001024 1725.28027328163 638.7180100001024 z M 1871.64107328163 1044.2424200001024 C 1816.45207328163 1073.0364200001025 1725.27107328163 1109.0304200001024 1655.68107328163 1128.2264200001023 L 1655.56587328163 1127.9667200001024 L 1650.3256732816299 1129.5116200001023 L 1692.2596732816298 1230.8516200001025 C 1756.26967328163 1260.7106200001024 1685.44387328163 1386.7116200001024 1559.6996732816299 1514.5516200001023 C 1775.65967328163 1188.2116200001024 1439.7196732816299 1344.1816200001024 1319.7496732816298 1476.1596200001024 C 1408.88867328163 1676.7196200001024 1746.37967328163 1605.9296200001024 2024.68967328163 1460.2726200001023 L 1999.42967328163 1394.2516200001023 C 1999.2251732816298 1394.3580200001024 1999.01877328163 1394.4695200001024 1998.81437328163 1394.5758200001023 L 1985.1263732816299 1356.8708200001024 L 1981.9623732816299 1348.6013200001023 L 1982.06587328163 1348.4431200001025 z" id="imagebot_3"/>
  <title>imagebot_2</title>
 </g>
</svg>